<svg width="114" height="114" viewBox="0 0 114 114" fill="none" xmlns="http://www.w3.org/2000/svg">
<path d="M17.5322 29.887C24.1965 22.6622 34.2807 19 47.5 19H52.25V32.3902L48.431 33.155C41.9235 34.4565 37.3967 37.0167 34.9742 40.774C33.7098 42.7979 32.9929 45.1156 32.8937 47.5H47.5C48.7598 47.5 49.968 48.0004 50.8588 48.8912C51.7495 49.782 52.25 50.9902 52.25 52.25V85.5C52.25 90.7393 47.9893 95 42.75 95H14.25C12.9902 95 11.782 94.4996 10.8912 93.6088C10.0004 92.718 9.5 91.5098 9.5 90.25V66.5L9.51425 52.6348C9.4715 52.1075 8.569 39.615 17.5322 29.887ZM95 95H66.5C65.2402 95 64.032 94.4996 63.1412 93.6088C62.2504 92.718 61.75 91.5098 61.75 90.25V66.5L61.7642 52.6348C61.7215 52.1075 60.819 39.615 69.7822 29.887C76.4465 22.6622 86.5308 19 99.75 19H104.5V32.3902L100.681 33.155C94.1735 34.4565 89.6468 37.0167 87.2243 40.774C85.9598 42.7979 85.2429 45.1156 85.1437 47.5H99.75C101.01 47.5 102.218 48.0004 103.109 48.8912C104 49.782 104.5 50.9902 104.5 52.25V85.5C104.5 90.7393 100.239 95 95 95Z" fill="#808080"/>
</svg>
