<svg width="80" height="72" viewBox="0 0 80 72" fill="none" xmlns="http://www.w3.org/2000/svg">
<path d="M35 45C34.0556 45 33.2644 44.712 32.6267 44.136C31.9889 43.56 31.6689 42.848 31.6667 42V39H36.6667V40.5H43.3333V37.5H35C34.0556 37.5 33.2644 37.212 32.6267 36.636C31.9889 36.06 31.6689 35.348 31.6667 34.5V30C31.6667 29.15 31.9867 28.438 32.6267 27.864C33.2667 27.29 34.0578 27.002 35 27H45C45.9444 27 46.7367 27.288 47.3767 27.864C48.0167 28.44 48.3356 29.152 48.3333 30V33H43.3333V31.5H36.6667V34.5H45C45.9444 34.5 46.7367 34.788 47.3767 35.364C48.0167 35.94 48.3356 36.652 48.3333 37.5V42C48.3333 42.85 48.0133 43.563 47.3733 44.139C46.7333 44.715 45.9422 45.002 45 45H35ZM56.6667 45C55.7222 45 54.9311 44.712 54.2933 44.136C53.6556 43.56 53.3356 42.848 53.3333 42V39H58.3333V40.5H65V37.5H56.6667C55.7222 37.5 54.9311 37.212 54.2933 36.636C53.6556 36.06 53.3356 35.348 53.3333 34.5V30C53.3333 29.15 53.6533 28.438 54.2933 27.864C54.9333 27.29 55.7244 27.002 56.6667 27H66.6667C67.6111 27 68.4033 27.288 69.0433 27.864C69.6833 28.44 70.0022 29.152 70 30V33H65V31.5H58.3333V34.5H66.6667C67.6111 34.5 68.4033 34.788 69.0433 35.364C69.6833 35.94 70.0022 36.652 70 37.5V42C70 42.85 69.68 43.563 69.04 44.139C68.4 44.715 67.6089 45.002 66.6667 45H56.6667ZM13.3333 45C12.3889 45 11.5978 44.712 10.96 44.136C10.3222 43.56 10.0022 42.848 10 42V30C10 29.15 10.32 28.438 10.96 27.864C11.6 27.29 12.3911 27.002 13.3333 27H23.3333C24.2778 27 25.07 27.288 25.71 27.864C26.35 28.44 26.6689 29.152 26.6667 30V33H21.6667V31.5H15V40.5H21.6667V39H26.6667V42C26.6667 42.85 26.3467 43.563 25.7067 44.139C25.0667 44.715 24.2756 45.002 23.3333 45H13.3333Z" fill="#F8F8F8"/>
</svg>
