<svg width="22" height="22" viewBox="0 0 22 22" fill="none" xmlns="http://www.w3.org/2000/svg">
<g clip-path="url(#clip0_336_1206)">
<path d="M7.66388 0.723606C5.46574 1.48616 3.57007 2.93352 2.2553 4.85308C0.940541 6.77264 0.275992 9.06323 0.359267 11.3884C0.442542 13.7136 1.26925 15.9507 2.71797 17.7713C4.16668 19.5919 6.16104 20.8999 8.4081 21.5033C10.2298 21.9734 12.1385 21.994 13.97 21.5635C15.6291 21.1908 17.163 20.3936 18.4215 19.25C19.7314 18.0234 20.6821 16.463 21.1715 14.7366C21.7035 12.8591 21.7982 10.8847 21.4483 8.96501H11.2183V13.2086H17.1428C17.0244 13.8854 16.7706 14.5314 16.3968 15.1079C16.0229 15.6844 15.5365 16.1795 14.9669 16.5636C14.2434 17.0422 13.4279 17.3642 12.5726 17.5089C11.7149 17.6684 10.8351 17.6684 9.97732 17.5089C9.10796 17.3292 8.28555 16.9704 7.56247 16.4553C6.40086 15.6331 5.52864 14.4649 5.07029 13.1175C4.60419 11.7449 4.60419 10.2568 5.07029 8.88423C5.39655 7.9221 5.93591 7.04609 6.6481 6.32157C7.46312 5.47723 8.49495 4.87369 9.6304 4.57717C10.7658 4.28065 11.961 4.30261 13.0848 4.64064C13.9627 4.91012 14.7655 5.38097 15.4292 6.01564C16.0972 5.35105 16.7641 4.68475 17.4298 4.01673C17.7736 3.65751 18.1483 3.31548 18.4869 2.94767C17.4738 2.00489 16.2846 1.2713 14.9875 0.788918C12.6254 -0.0687555 10.0409 -0.0918046 7.66388 0.723606Z" fill="white"/>
<path d="M7.6639 0.723709C10.0407 -0.092256 12.6252 -0.0698135 14.9875 0.787302C16.2848 1.27296 17.4735 2.01009 18.4851 2.95637C18.1414 3.32418 17.7787 3.66793 17.4281 4.02543C16.7612 4.69116 16.0949 5.35459 15.4292 6.01574C14.7655 5.38107 13.9627 4.91023 13.0848 4.64074C11.9614 4.30153 10.7663 4.2783 9.63052 4.57361C8.49477 4.86892 7.46231 5.47135 6.6464 6.3148C5.9342 7.03932 5.39485 7.91533 5.06858 8.87746L1.50562 6.11886C2.78094 3.58983 4.98909 1.65531 7.6639 0.723709Z" fill="#E33629"/>
<path d="M0.560288 8.85146C0.751793 7.90236 1.06973 6.98323 1.5056 6.11865L5.06857 8.88412C4.60247 10.2567 4.60247 11.7448 5.06857 13.1174C3.88149 14.0341 2.69383 14.9553 1.5056 15.8812C0.414453 13.7092 0.0816723 11.2345 0.560288 8.85146Z" fill="#F8BD00"/>
<path d="M11.2183 8.96338H21.4483C21.7982 10.8831 21.7036 12.8575 21.1716 14.7349C20.6821 16.4614 19.7314 18.0218 18.4216 19.2484C17.2717 18.3512 16.1167 17.4609 14.9669 16.5637C15.537 16.1792 16.0235 15.6835 16.3974 15.1064C16.7713 14.5293 17.0249 13.8827 17.1428 13.2053H11.2183C11.2166 11.7924 11.2183 10.3779 11.2183 8.96338Z" fill="#587DBD"/>
<path d="M1.50391 15.8812C2.69214 14.9645 3.87979 14.0433 5.06688 13.1174C5.52614 14.4653 6.3996 15.6335 7.5625 16.4552C8.28783 16.9679 9.11201 17.3238 9.9825 17.5002C10.8403 17.6597 11.7201 17.6597 12.5778 17.5002C13.4331 17.3555 14.2486 17.0335 14.972 16.5549C16.1219 17.4521 17.2769 18.3424 18.4267 19.2396C17.1684 20.3838 15.6345 21.1816 13.9752 21.5548C12.1437 21.9853 10.235 21.9647 8.41328 21.4946C6.97246 21.1099 5.62663 20.4317 4.46016 19.5026C3.22551 18.5224 2.21711 17.2871 1.50391 15.8812Z" fill="#319F43"/>
</g>
<defs>
<clipPath id="clip0_336_1206">
<rect width="22" height="22" fill="white"/>
</clipPath>
</defs>
</svg>
