<svg width="80" height="78" viewBox="0 0 80 78" fill="none" xmlns="http://www.w3.org/2000/svg">
<path opacity="0.6" d="M38.89 6.5H27.7766C24.8296 6.5 22.0034 7.64142 19.9195 9.67317C17.8357 11.7049 16.665 14.4606 16.665 17.3339C16.665 20.2072 17.8357 22.9628 19.9195 24.9946C22.0034 27.0263 24.8296 28.1678 27.7766 28.1678H38.89V6.5Z" fill="#F8F8F8"/>
<path opacity="0.4" d="M38.89 28.1678H27.7767C24.8301 28.1678 22.0043 29.309 19.9207 31.3404C17.8372 33.3719 16.6667 36.1271 16.6667 39C16.6667 41.8729 17.8372 44.6281 19.9207 46.6596C22.0043 48.691 24.8301 49.8323 27.7767 49.8323H38.89V28.1678Z" fill="#F8F8F8"/>
<path d="M61.11 39C61.11 41.8733 59.9393 44.629 57.8555 46.6607C55.7716 48.6925 52.9453 49.8339 49.9983 49.8339C47.0513 49.8339 44.225 48.6925 42.1412 46.6607C40.0573 44.629 38.8867 41.8733 38.8867 39C38.8867 36.1267 40.0573 33.3711 42.1412 31.3393C44.225 29.3076 47.0513 28.1661 49.9983 28.1661C52.9453 28.1661 55.7716 29.3076 57.8555 31.3393C59.9393 33.3711 61.11 36.1267 61.11 39Z" fill="#F8F8F8"/>
<path opacity="0.2" d="M27.7767 49.8355H38.89V60.6677C38.8893 62.8099 38.2373 64.9037 37.0162 66.6846C35.7952 68.4655 34.06 69.8533 32.0301 70.6728C30.0001 71.4923 27.7665 71.7065 25.6117 71.2884C23.4569 70.8704 21.4776 69.8388 19.924 68.3241C18.3705 66.8093 17.3124 64.8795 16.8836 62.7786C16.4548 60.6776 16.6746 58.4999 17.515 56.5207C18.3555 54.5415 19.779 52.8497 21.6055 51.6592C23.432 50.4687 25.5796 49.8361 27.7767 49.8355Z" fill="#F8F8F8"/>
<path opacity="0.8" d="M38.8867 6.5H49.9967C52.9437 6.5 55.7699 7.64142 57.8538 9.67317C59.9376 11.7049 61.1083 14.4606 61.1083 17.3339C61.1083 20.2072 59.9376 22.9628 57.8538 24.9946C55.7699 27.0263 52.9437 28.1678 49.9967 28.1678H38.8867V6.5Z" fill="#F8F8F8"/>
</svg>
