<svg width="27" height="25" viewBox="0 0 27 25" fill="none" xmlns="http://www.w3.org/2000/svg">
<path d="M27 12.5C27 9.18479 25.5777 6.00537 23.0459 3.66117C20.5142 1.31696 17.0804 0 13.5 0C9.91958 0 6.4858 1.31696 3.95406 3.66117C1.42232 6.00537 0 9.18479 0 12.5C0 15.8152 1.42232 18.9946 3.95406 21.3388C6.4858 23.683 9.91958 25 13.5 25C17.0804 25 20.5142 23.683 23.0459 21.3388C25.5777 18.9946 27 15.8152 27 12.5ZM13.5 20.3125V21.875H7.59375C7.54108 21.8751 7.48854 21.8798 7.43681 21.8891C6.63703 21.4459 5.89669 20.9167 5.23125 20.3125H13.5ZM13.5 18.75H3.80531C3.43251 18.2551 3.10458 17.7325 2.82488 17.1875H13.5V18.75ZM2.17687 15.625C2.0121 15.1133 1.88801 14.591 1.80563 14.0625H13.5V15.625H2.17687ZM1.6875 12.5C1.6875 11.9688 1.72688 11.4479 1.80563 10.9375H13.5V12.5H1.6875ZM2.17687 9.375C2.35125 8.83438 2.56725 8.31354 2.82488 7.8125H13.5V9.375H2.17687ZM3.80531 6.25C4.22944 5.6875 4.70531 5.16667 5.23294 4.6875H13.5V6.25H3.80531ZM7.4115 3.125C9.24911 2.09976 11.3546 1.55943 13.5 1.5625V3.125H7.4115Z" fill="#F8F8F8"/>
</svg>
